<svg width="69" height="72" viewBox="0 0 69 72" fill="none" xmlns="http://www.w3.org/2000/svg">
<rect width="69" height="72" rx="24" fill="#2E2F38"/>
<path d="M34.129 25.56C35.8997 25.56 37.393 26.0293 38.609 26.968C39.825 27.8853 40.7423 29.1653 41.361 30.808C41.9797 32.4293 42.289 34.3067 42.289 36.44C42.289 39.9813 41.5957 42.68 40.209 44.536C38.8437 46.392 36.8277 47.32 34.161 47.32C32.4117 47.32 30.9077 46.9147 29.649 46.104C28.3903 45.2933 27.4517 44.1093 26.833 42.552L29.361 41.208C29.7023 42.3173 30.257 43.2133 31.025 43.896C31.8143 44.5787 32.8917 44.92 34.257 44.92C35.729 44.92 36.881 44.536 37.713 43.768C38.545 43 39.121 41.912 39.441 40.504C39.7823 39.096 39.953 37.4533 39.953 35.576V35.288H39.825C39.569 36.248 39.121 37.0267 38.481 37.624C37.841 38.2 37.1157 38.616 36.305 38.872C35.5157 39.128 34.7263 39.256 33.937 39.256C32.5503 39.256 31.3237 38.9893 30.257 38.456C29.1903 37.9013 28.3583 37.1333 27.761 36.152C27.1637 35.1707 26.865 34.008 26.865 32.664C26.865 30.5093 27.505 28.792 28.785 27.512C30.0863 26.2107 31.8677 25.56 34.129 25.56ZM34.161 28.024C32.6677 28.024 31.5263 28.44 30.737 29.272C29.9477 30.0827 29.553 31.224 29.553 32.696C29.553 33.9547 29.969 34.9573 30.801 35.704C31.633 36.4293 32.753 36.792 34.161 36.792C35.5477 36.792 36.657 36.3867 37.489 35.576C38.3423 34.7653 38.769 33.72 38.769 32.44C38.769 31.1173 38.3423 30.0507 37.489 29.24C36.657 28.4293 35.5477 28.024 34.161 28.024Z" fill="white"/>
</svg>
